<?xml version="1.0" standalone="no"?><!DOCTYPE svg PUBLIC "-//W3C//DTD SVG 1.1//EN" "http://www.w3.org/Graphics/SVG/1.1/DTD/svg11.dtd"><svg t="1606230682280" class="icon" viewBox="0 0 1024 1024" version="1.1" xmlns="http://www.w3.org/2000/svg" p-id="46090" xmlns:xlink="http://www.w3.org/1999/xlink" width="200" height="200"><defs><style type="text/css"></style></defs><path d="M73.142857 0h877.714286a73.142857 73.142857 0 0 1 73.142857 73.142857v877.714286a73.142857 73.142857 0 0 1-73.142857 73.142857H73.142857a73.142857 73.142857 0 0 1-73.142857-73.142857V73.142857a73.142857 73.142857 0 0 1 73.142857-73.142857z m780.8 636.952381c-80.871619-40.155429-202.776381-27.282286-202.776381-27.282286s-39.838476-38.838857-74.069333-76.312381c-34.230857-37.497905-58.416762-91.574857-58.416762-91.574857 82.822095-231.131429 25.990095-275.943619-22.918095-270.726095-38.473143 4.193524-77.019429 47.88419-72.704 110.34819 4.242286 62.464 53.443048 172.81219 53.443047 172.812191s-23.503238 64.609524-49.200762 114.029714c-25.624381 49.444571-74.605714 107.715048-74.605714 107.715048s-121.61219 23.966476-177.785905 86.503619c-65.145905 72.411429-8.533333 133.241905 64.170667 110.34819 72.728381-22.942476 148.528762-164.644571 148.528762-164.644571s71.728762-28.525714 133.339429-37.888c65.219048-9.923048 104.667429-10.727619 104.667428-10.727619s64.78019 109.177905 169.618286 132.047238c104.911238 22.893714 147.602286-110.445714 58.709333-154.648381z m-585.971809 166.034286c-19.821714 22.381714-51.321905 38.497524-66.316191 30.183619-8.899048-4.924952-4.729905-27.062857 24.064-53.638096 28.867048-26.575238 92.501333-44.714667 92.501333-44.714666s-34.230857 50.005333-50.249142 68.193524z m196.266666-529.164191c-2.633143-57.002667 34.401524-58.319238 34.401524-58.319238 34.913524 9.020952 20.943238 73.923048 20.114286 95.768381-0.828952 21.845333-24.356571 77.702095-24.356572 77.702095s-28.330667-75.995429-30.134857-115.151238z m44.909715 356.376381c-24.624762 4.998095-88.259048 20.309333-88.259048 20.309333s21.138286-23.990857 44.958476-66.145523a405.77219 405.77219 0 0 0 34.913524-83.212191s33.475048 53.49181 46.031238 69.729524c12.458667 16.286476 43.008 49.542095 43.008 49.542095-27.062857 1.633524-54.00381 4.87619-80.65219 9.752381z m340.358095 91.964953c-7.875048 22.186667-44.982857 27.062857-66.364953 11.093333-23.893333-17.871238-90.331429-79.60381-90.331428-79.60381s33.865143 1.560381 67.584 4.632381c33.694476 3.096381 102.936381 24.576 89.112381 63.878096z" fill="#E12410" p-id="46091"></path></svg>