<?xml version="1.0" standalone="no"?><!DOCTYPE svg PUBLIC "-//W3C//DTD SVG 1.1//EN" "http://www.w3.org/Graphics/SVG/1.1/DTD/svg11.dtd"><svg t="1608633638450" class="icon" viewBox="0 0 1024 1024" version="1.1" xmlns="http://www.w3.org/2000/svg" p-id="61656" xmlns:xlink="http://www.w3.org/1999/xlink" width="200" height="200"><defs><style type="text/css"></style></defs><path d="M869.696 194.56l-20.096-21.568C763.84 81.088 642.592 28.48 512 28.48 246.08 28.448 28.448 246.08 28.448 512 28.448 777.92 246.08 995.552 512 995.552c205.856 0 387.488-135.2 454.368-327.104h-76.288c-61.6 152.128-210.4 256-378.08 256C285.12 924.448 99.552 738.88 99.552 512 99.552 285.12 285.12 99.552 512 99.552c111.264 0 209.024 43.648 288.928 123.52l20.096 20.128-176.352 176.352h350.88V68.672l-125.856 125.856z" fill="#d81e06" p-id="61657"></path></svg>